<svg id="Layer_1" enable-background="new 0 0 512 512" height="512" viewBox="0 0 512 512" width="512" xmlns="http://www.w3.org/2000/svg">
	<g clip-rule="evenodd" fill-rule="evenodd">
		<path d="m6.918 131.403h498.162v373.678h-498.162z" fill="#f2c07e" />
		<path d="m256 505.08v-200.701c-35.771 0-65.037 29.265-65.037 65.037v135.664z" fill="#b77a4b" />
		<path d="m321.038 505.08v-135.664c0-35.772-29.266-65.037-65.038-65.037v200.701z" fill="#b77a4b" />
		<path d="m73.34 318.908h51.2v103.784h-51.2z" fill="#e5e9ea" />
		<path d="m387.458 318.908h51.2v103.784h-51.2z" fill="#e5e9ea" />
		<path d="m416.312 69.161h88.768v62.241h-88.768z" fill="#7b3418" />
		<path d="m6.918 69.161h88.768v62.241h-88.768z" fill="#7b3418" />
		<path d="m256 10.153c46.023 9.846 62.512-10.829 96.722 0v55.649c-33.226-5.251-56.933 9.189-96.722 0z" fill="#f2c07e" />
		<path d="m92.161 251.032h-33.431c-3.822 0-6.919-3.099-6.919-6.919 0-3.819 3.098-6.918 6.919-6.918h33.432c3.304 0 5.991-2.69 5.991-5.991 0-3.303-2.687-5.991-5.991-5.991h-23.622c-10.931 0-19.829-8.896-19.829-19.828s8.896-19.825 19.829-19.825l34.206.001c3.822 0 6.918 3.099 6.918 6.918 0 3.821-3.096 6.919-6.918 6.919h-34.206c-3.303 0-5.991 2.685-5.991 5.986 0 3.302 2.688 5.991 5.991 5.991h23.623c10.932 0 19.829 8.896 19.829 19.829-.002 10.932-8.897 19.828-19.831 19.828zm49.992-51.632h21.943c2.378 0 4.314 1.931 4.314 4.311 0 3.819 3.097 6.918 6.919 6.918s6.918-3.099 6.918-6.918c0-10.009-8.142-18.148-18.151-18.148h-21.943c-10.01 0-18.152 8.139-18.152 18.148v29.169c0 10.009 8.142 18.153 18.152 18.153h21.943c10.01 0 18.152-8.145 18.152-18.153 0-3.819-3.098-6.918-6.919-6.918-3.822 0-6.919 3.099-6.919 6.918 0 2.338-1.975 4.316-4.312 4.316l-21.944-.001c-2.338 0-4.313-1.977-4.313-4.315v-29.169c-.001-2.338 1.974-4.311 4.312-4.311zm103.436-13.839c-3.822 0-6.919 3.099-6.919 6.919v18.896h-30.57v-18.896c0-3.821-3.097-6.919-6.919-6.919s-6.918 3.099-6.918 6.919v51.634c0 3.821 3.096 6.919 6.918 6.919s6.919-3.099 6.919-6.919v-18.9h30.57v18.9c0 3.821 3.097 6.919 6.919 6.919s6.919-3.099 6.919-6.919v-51.634c0-3.82-3.097-6.919-6.919-6.919zm77.179 18.148v29.171c0 10.009-8.143 18.152-18.152 18.152h-21.94c-10.009 0-18.151-8.144-18.151-18.153v-29.169c0-10.009 8.142-18.148 18.151-18.148h21.94c10.008-.001 18.152 8.14 18.152 18.147zm-13.839 0c0-2.378-1.935-4.311-4.312-4.311h-21.941c-2.378 0-4.313 1.933-4.313 4.311v29.171c0 2.338 1.976 4.315 4.313 4.315h21.94c2.338 0 4.314-1.978 4.314-4.316v-29.17zm65.944 47.323h-21.941c-10.009 0-18.151-8.144-18.151-18.153v-29.169c0-10.009 8.142-18.148 18.151-18.148h21.941c10.009 0 18.151 8.139 18.151 18.148v29.171c0 10.008-8.142 18.151-18.151 18.151zm4.312-47.323c0-2.378-1.935-4.311-4.312-4.311h-21.941c-2.338 0-4.313 1.973-4.313 4.311v29.171c0 2.338 1.976 4.315 4.313 4.315h21.941c2.338 0 4.312-1.978 4.312-4.316zm25.856-11.229v51.634c0 3.821 3.097 6.919 6.919 6.919h44.404c3.822 0 6.919-3.099 6.919-6.919 0-3.819-3.097-6.918-6.919-6.918l-37.485-.001v-44.715c0-3.821-3.097-6.919-6.919-6.919-3.821 0-6.919 3.099-6.919 6.919zm-273.582 126.429v103.781c0 3.82-3.098 6.919-6.919 6.919h-51.2c-3.822 0-6.919-3.099-6.919-6.919v-103.781c0-3.821 3.097-6.919 6.919-6.919h51.2c3.823 0 6.919 3.098 6.919 6.919zm-13.837 6.919h-37.363v89.944h37.362v-89.944zm327.954-6.919v103.781c0 3.82-3.097 6.919-6.919 6.919h-51.197c-3.822 0-6.919-3.099-6.919-6.919v-103.781c0-3.821 3.097-6.919 6.919-6.919h51.197c3.821 0 6.919 3.098 6.919 6.919zm-13.838 6.919h-37.361v89.944h37.361zm-431.738-256.655v435.907c0 3.82 3.096 6.92 6.918 6.92h498.162c3.822 0 6.919-3.1 6.919-6.919v-435.908c0-3.821-3.098-6.919-6.919-6.919h-88.768c-3.822 0-6.918 3.099-6.918 6.919v55.317l-146.475.001v-50.283c7.349 1.2 14.16 1.676 20.596 1.676 10.253 0 19.588-1.157 28.749-2.293 13.076-1.621 25.43-3.149 39.378-.945 1.993.328 4.035-.258 5.574-1.572 1.54-1.316 2.425-3.24 2.425-5.262v-55.647c0-3.018-1.954-5.684-4.831-6.594-18.468-5.846-32.111-3.35-46.559-.706-14.13 2.585-28.747 5.256-50.804.536-2.05-.442-4.173.076-5.8 1.386-1.624 1.311-2.568 3.288-2.568 5.379v114.324l-146.474.001v-55.318c0-3.821-3.097-6.919-6.919-6.919h-88.768c-3.822-.001-6.918 3.098-6.918 6.919zm262.918-8.996.001-41.72c20.265 3.058 34.803.392 47.821-1.983 11.82-2.161 22.203-4.053 35.064-1.044v42.608c-12.637-.978-24.098.438-35.242 1.824-14.471 1.789-29.396 3.639-47.644.315zm160.312 64.314v-48.4h74.931v48.4zm-409.392-48.4h74.93v48.4h-74.93zm249.082 235.662c28.79 3.436 51.199 27.964 51.199 57.664v128.744h-51.199zm-13.839 0v186.408h-51.2v-128.744c.001-29.7 22.409-54.227 51.2-57.664zm249.08-173.425h-484.323v359.833h170.206v-128.744c0-39.675 32.279-71.953 71.955-71.953h.001.003c39.675.003 71.953 32.28 71.953 71.953v128.744h170.205z" />
	</g>
</svg>
